HIERARCHY
ROOT joint_Root
{
	OFFSET 0.0 0.0 0.0
	CHANNELS 6 Xposition Yposition Zposition Zrotation Xrotation Yrotation 
	JOINT Hips
	{
		OFFSET 4.5925 91.4895 -427.239
		CHANNELS 6 Xposition Yposition Zposition Zrotation Xrotation Yrotation 
		JOINT Spine
		{
			OFFSET 15.7357 0.0 0.0
			CHANNELS 6 Xposition Yposition Zposition Zrotation Xrotation Yrotation 
			JOINT Chest
			{
				OFFSET 8.98455 -0.406207 0.0
				CHANNELS 6 Xposition Yposition Zposition Zrotation Xrotation Yrotation 
				JOINT Neck
				{
					OFFSET 16.3773 0.0 0.0
					CHANNELS 6 Xposition Yposition Zposition Zrotation Xrotation Yrotation 
					JOINT Head
					{
						OFFSET 6.45672 0.0 0.0
						CHANNELS 6 Xposition Yposition Zposition Zrotation Xrotation Yrotation 
						End Site
						{
							OFFSET 0.0 0.0 0.0
						}
					}
				}
				JOINT Shoulder_L
				{
					OFFSET 12.9942 -0.242716 4.98039
					CHANNELS 6 Xposition Yposition Zposition Zrotation Xrotation Yrotation 
					JOINT UpperArm_L
					{
						OFFSET 5.34809 0.0 0.0
						CHANNELS 6 Xposition Yposition Zposition Zrotation Xrotation Yrotation 
						JOINT LowerArm_L
						{
							OFFSET 24.3286 1.87007e-05 0.0
							CHANNELS 6 Xposition Yposition Zposition Zrotation Xrotation Yrotation 
							JOINT Hand_L
							{
								OFFSET 22.2916 0.0 0.0
								CHANNELS 6 Xposition Yposition Zposition Zrotation Xrotation Yrotation 
								End Site
								{
									OFFSET 0.0 0.0 0.0
								}
							}
						}
					}
				}
				JOINT Shoulder_R
				{
					OFFSET 12.9945 -0.242716 -4.98039
					CHANNELS 6 Xposition Yposition Zposition Zrotation Xrotation Yrotation 
					JOINT UpperArm_R
					{
						OFFSET -5.34813 0.0 0.0
						CHANNELS 6 Xposition Yposition Zposition Zrotation Xrotation Yrotation 
						JOINT LowerArm_R
						{
							OFFSET -24.3289 0.000322201 0.0
							CHANNELS 6 Xposition Yposition Zposition Zrotation Xrotation Yrotation 
							JOINT Hand_R
							{
								OFFSET -22.2915 -0.000108084 0.0
								CHANNELS 6 Xposition Yposition Zposition Zrotation Xrotation Yrotation 
								End Site
								{
									OFFSET 0.0 0.0 0.0
								}
							}
						}
					}
				}
			}
		}
		JOINT UpperLeg_L
		{
			OFFSET -2.19248 -6.46944 0.0
			CHANNELS 6 Xposition Yposition Zposition Zrotation Xrotation Yrotation 
			JOINT LowerLeg_L
			{
				OFFSET 39.0811 0.0 -1.23785e-05
				CHANNELS 6 Xposition Yposition Zposition Zrotation Xrotation Yrotation 
				JOINT Foot_L
				{
					OFFSET 40.9854 0.0 -1.26872e-05
					CHANNELS 6 Xposition Yposition Zposition Zrotation Xrotation Yrotation 
					JOINT Toes_L
					{
						OFFSET 11.7543 0.0 0.0
						CHANNELS 6 Xposition Yposition Zposition Zrotation Xrotation Yrotation 
						End Site
						{
							OFFSET 0.0 0.0 0.0
						}
					}
				}
			}
		}
		JOINT UpperLeg_R
		{
			OFFSET -2.19251 6.46944 0.0
			CHANNELS 6 Xposition Yposition Zposition Zrotation Xrotation Yrotation 
			JOINT LowerLeg_R
			{
				OFFSET -39.0811 -0.00228153 -0.0401928
				CHANNELS 6 Xposition Yposition Zposition Zrotation Xrotation Yrotation 
				JOINT Foot_R
				{
					OFFSET -40.9854 0.0 0.0
					CHANNELS 6 Xposition Yposition Zposition Zrotation Xrotation Yrotation 
					JOINT Toes_R
					{
						OFFSET -11.7543 0.0 0.0
						CHANNELS 6 Xposition Yposition Zposition Zrotation Xrotation Yrotation 
						End Site
						{
							OFFSET 0.0 0.0 0.0
						}
					}
				}
			}
		}
	}
}
MOTION
Frames:	4
Frame Time:	0.0333333
0.000000 0.000000 0.000000 0.000000 0.000000 -0.000000 -2.488920 90.480800 1.260350 89.924000 -9.252260 14.266800 15.735700 0.000005 -0.000001 72.882600 82.130300 -71.161200 8.984550 -0.406207 -0.000000 7.366310 -4.621480 3.738210 16.377300 -0.000001 -0.000001 30.162300 -12.204600 -0.967293 6.456720 -0.000001 -0.000000 19.409700 -15.538400 -4.092310 12.994200 -0.242716 4.980390 -87.935000 -5.155490 -68.136300 5.348090 -0.000007 -0.000001 -15.177500 -35.593700 -67.986900 24.328600 0.000019 0.000005 18.619000 19.856000 -44.766800 22.291600 -0.000001 0.000005 23.750500 5.312640 -0.285641 12.994500 -0.242716 -4.980390 88.369800 7.875210 -78.265600 -5.348130 -0.000001 -0.000004 -63.925000 30.022300 -4.661990 -24.328900 0.000322 -0.000009 1.408800 5.899720 -13.465400 -22.291500 -0.000108 -0.000004 12.943200 5.367880 -1.921110 -2.192480 -6.469440 -0.000000 -171.534000 -15.353300 6.698360 39.081100 -0.000007 -0.000012 -0.197745 0.336742 30.423100 40.985400 -0.000006 -0.000013 -1.764650 4.022740 -71.599400 11.754300 -0.000000 0.000003 -0.000068 -0.000735 -16.606000 -2.192510 6.469440 -0.000001 174.881000 13.575800 -175.012000 -39.081100 -0.002282 -0.040193 -0.165222 0.276026 31.405300 -40.985400 0.000008 0.000006 4.236620 12.309000 -72.427300 -11.754300 -0.000006 -0.000006 -0.003096 -0.041680 -18.268200
0.000000 0.000000 0.000000 0.000000 0.000000 -0.000000 -2.503900 90.476200 1.333790 89.860500 -9.681250 14.129800 15.735700 0.000005 -0.000001 72.680500 82.123500 -70.905700 8.984550 -0.406207 -0.000000 7.366460 -4.678500 3.848780 16.377300 -0.000001 -0.000001 30.267100 -12.372100 -0.455031 6.456720 -0.000001 -0.000000 19.384200 -15.778200 -3.598940 12.994200 -0.242716 4.980390 -87.942800 -5.161450 -68.234000 5.348090 -0.000007 -0.000001 -16.078700 -35.970900 -64.364800 24.328600 0.000019 0.000005 17.956500 20.632500 -42.605000 22.291600 -0.000001 0.000005 24.239800 5.304860 -0.065178 12.994500 -0.242716 -4.980390 88.349600 7.855370 -78.095400 -5.348130 -0.000001 -0.000004 -63.580900 29.352900 -4.328020 -24.328900 0.000322 -0.000009 1.397750 6.045830 -13.053200 -22.291500 -0.000108 -0.000004 12.950100 5.367170 -1.899320 -2.192480 -6.469440 -0.000000 -171.437000 -15.576600 6.707650 39.081100 -0.000007 -0.000012 -0.198381 0.337998 30.410300 40.985400 -0.000006 -0.000013 -1.834530 3.844190 -71.684100 11.754300 -0.000000 0.000003 -0.000068 -0.000743 -16.606300 -2.192510 6.469440 -0.000001 175.022000 13.346400 -175.135000 -39.081100 -0.002282 -0.040193 -0.170387 0.284711 31.385200 -40.985400 0.000008 0.000006 4.273030 12.436200 -72.443600 -11.754300 -0.000006 -0.000006 -0.003362 -0.044627 -18.388200
0.000000 0.000000 0.000000 0.000000 0.000000 -0.000000 -2.514660 90.477500 1.416220 89.795100 -10.026500 14.027400 15.735700 0.000005 -0.000001 72.554900 82.110800 -70.727200 8.984550 -0.406207 -0.000000 7.383690 -4.718780 3.957920 16.377300 -0.000001 -0.000001 30.367500 -12.574300 0.046185 6.456720 -0.000001 -0.000000 19.347800 -16.032400 -2.956790 12.994200 -0.242716 4.980390 -87.972300 -5.111340 -68.327500 5.348090 -0.000007 -0.000001 -17.055800 -36.474300 -60.812100 24.328600 0.000019 0.000005 17.331100 21.472400 -40.447900 22.291600 -0.000001 0.000005 24.691000 5.302340 0.005809 12.994500 -0.242716 -4.980390 88.331900 7.820620 -77.919800 -5.348130 -0.000001 -0.000004 -63.264100 28.855100 -3.992160 -24.328900 0.000322 -0.000009 1.402700 6.090600 -13.004900 -22.291500 -0.000108 -0.000004 13.008300 5.369870 -1.982680 -2.192480 -6.469440 -0.000000 -171.338000 -15.741800 6.762920 39.081100 -0.000007 -0.000012 -0.199354 0.340312 30.362000 40.985400 -0.000006 -0.000013 -1.895860 3.704310 -71.751000 11.754300 -0.000000 0.000003 -0.000069 -0.000748 -16.606400 -2.192510 6.469440 -0.000001 175.130000 13.200300 -175.181000 -39.081100 -0.002282 -0.040193 -0.168016 0.281516 31.322600 -40.985400 0.000008 0.000006 4.314410 12.596200 -72.453000 -11.754300 -0.000006 -0.000006 -0.003367 -0.044690 -18.390700
0.000000 0.000000 0.000000 0.000000 0.000000 -0.000000 -2.517590 90.475900 1.485160 89.748900 -10.288000 13.865700 15.735700 0.000005 -0.000001 72.523800 82.113200 -70.667400 8.984550 -0.406207 -0.000000 7.378050 -4.725710 4.015550 16.377300 -0.000001 -0.000001 30.368700 -12.816700 0.572712 6.456720 -0.000001 -0.000000 19.423600 -16.352900 -2.199320 12.994200 -0.242716 4.980390 -88.011500 -5.037430 -68.425800 5.348090 -0.000007 -0.000001 -17.904600 -37.211400 -57.332800 24.328600 0.000019 0.000005 17.264600 23.035600 -38.458500 22.291600 -0.000001 0.000005 24.744000 5.286490 0.448035 12.994500 -0.242716 -4.980390 88.309300 7.774230 -77.690800 -5.348130 -0.000001 -0.000004 -63.047500 28.455400 -3.789520 -24.328900 0.000322 -0.000009 1.392900 5.985270 -13.135900 -22.291500 -0.000108 -0.000004 12.939000 5.371720 -2.039930 -2.192480 -6.469440 -0.000000 -171.300000 -15.848800 6.702380 39.081100 -0.000007 -0.000012 -0.202350 0.345690 30.342900 40.985400 -0.000006 -0.000013 -1.957210 3.557330 -71.806700 11.754300 -0.000000 0.000003 -0.000070 -0.000757 -16.606800 -2.192510 6.469440 -0.000001 175.249000 13.023700 -175.314000 -39.081100 -0.002282 -0.040193 -0.166405 0.279198 31.292500 -40.985400 0.000008 0.000006 4.334750 12.678400 -72.468700 -11.754300 -0.000006 -0.000006 -0.003049 -0.041150 -18.246600
